<?xml version="1.0" encoding="utf-8"?>
<svg xmlns="http://www.w3.org/2000/svg" viewBox="0 0 80 80" width="480" height="480">
  <path d="M40.025391 8 A 1.0001 1.0001 0 0 0 39.509766 8.1289062C33.8428 11.316887 28.1768 14.503387 22.509766 17.691406C21.677827 18.158956 20.846953 18.628147 20.015625 19.095703C20.001411 19.103698 19.98687 19.111147 19.972656 19.119141 A 1.0001 1.0001 0 0 0 19.953125 19.128906C19.805298 19.212041 19.657574 19.295838 19.509766 19.378906C15.509591 21.628854 11.509785 23.879137 7.5097656 26.128906 A 1.0001 1.0001 0 0 0 7.5097656 27.871094C11.141939 29.914554 14.77417 31.957025 18.40625 34C14.774082 36.043135 11.141892 38.086054 7.5097656 40.128906 A 1.0001 1.0001 0 0 0 7.5097656 41.871094C11.141939 43.914554 14.77417 45.957025 18.40625 48C14.774082 50.043135 11.141892 52.086054 7.5097656 54.128906 A 1.0001 1.0001 0 0 0 7.5097656 55.871094C12.489515 58.672701 17.469645 61.471936 22.449219 64.273438C22.469559 64.284877 22.489426 64.297144 22.509766 64.308594C28.1768 67.496613 33.8428 70.683113 39.509766 73.871094 A 1.0001 1.0001 0 0 0 40.501953 73.865234C45.814806 70.78093 51.128533 67.694683 56.441406 64.609375 A 1.0001 1.0001 0 0 0 56.501953 64.574219C61.501867 61.670269 66.501953 58.768234 71.501953 55.865234 A 1.0001 1.0001 0 0 0 71.501953 54.134766C67.979864 52.090218 64.457829 50.044888 60.935547 48C64.457666 45.955006 67.979829 43.91018 71.501953 41.865234 A 1.0001 1.0001 0 0 0 71.501953 40.134766C67.979864 38.090218 64.457829 36.044888 60.935547 34C64.457666 31.955006 67.979829 29.91018 71.501953 27.865234 A 1.0001 1.0001 0 0 0 71.501953 26.134766C67.512384 23.818849 63.523102 21.501671 59.533203 19.185547C59.526637 19.181735 59.520238 19.17764 59.513672 19.173828 A 1.0001 1.0001 0 0 0 59.501953 19.167969C59.48302 19.156969 59.464245 19.145765 59.445312 19.134766 A 1.0001 1.0001 0 0 0 59.439453 19.130859C58.480191 18.573559 57.520971 18.017771 56.5625 17.460938 A 1.0001 1.0001 0 0 0 56.501953 17.425781C51.168987 14.329801 45.834906 11.231738 40.501953 8.1347656 A 1.0001 1.0001 0 0 0 40.025391 8 z M 39.992188 10.152344C45.140372 13.141983 50.289378 16.130466 55.4375 19.119141 A 1.0001 1.0001 0 0 0 55.498047 19.154297C56.457327 19.711638 57.416512 20.267399 58.375 20.824219 A 1.0001 1.0001 0 0 0 58.378906 20.828125 A 1.0001 1.0001 0 0 0 58.441406 20.865234C61.963496 22.909782 65.485653 24.955112 69.007812 27C65.531758 29.018204 62.054165 31.037759 58.578125 33.056641 A 1.0001 1.0001 0 0 0 58.294922 33.220703C57.388496 33.747155 56.482614 34.27432 55.576172 34.800781 A 1.0001 1.0001 0 0 0 55.277344 35.005859 A 1.0001 1.0001 0 0 0 56.351562 36.650391 A 1.0001 1.0001 0 0 0 56.617188 36.507812C57.392708 36.057395 58.167831 35.606587 58.943359 35.15625C62.2982 37.103775 65.652911 39.052219 69.007812 41C65.503755 43.034463 62.000138 45.070321 58.496094 47.105469 A 1.0002933 1.0002933 0 0 0 58.398438 47.162109C57.457727 47.708474 56.516899 48.254407 55.576172 48.800781 A 1.0001 1.0001 0 0 0 55.277344 49.005859 A 1.0001 1.0001 0 0 0 56.351562 50.650391 A 1.0001 1.0001 0 0 0 56.617188 50.507812C57.392708 50.057395 58.167831 49.606587 58.943359 49.15625C62.2982 51.103775 65.652911 53.052219 69.007812 55C64.524704 57.602902 60.041772 60.206724 55.558594 62.810547C55.538414 62.822267 55.518227 62.833973 55.498047 62.845703C50.329826 65.847046 45.160476 68.847252 39.992188 71.847656C34.511733 68.764623 29.03122 65.684608 23.550781 62.601562 A 1.0001 1.0001 0 0 0 23.490234 62.566406C19.006417 60.043813 14.522742 57.522351 10.039062 55C13.507986 53.048758 16.976588 51.097531 20.445312 49.146484C21.098247 49.513779 21.751366 49.88071 22.404297 50.248047 A 1.0001 1.0001 0 0 0 22.660156 50.382812 A 1.0001 1.0001 0 0 0 23.789062 48.806641 A 1.0001 1.0001 0 0 0 23.400391 48.515625C22.624475 48.079097 21.848174 47.643502 21.072266 47.207031 A 1.0001 1.0001 0 0 0 20.810547 47.058594C17.220083 45.038874 13.629455 43.019821 10.039062 41C13.507986 39.048758 16.976588 37.097531 20.445312 35.146484C21.098247 35.513779 21.751366 35.88071 22.404297 36.248047 A 1.0001 1.0001 0 0 0 22.660156 36.382812 A 1.0001 1.0001 0 0 0 23.789062 34.806641 A 1.0001 1.0001 0 0 0 23.400391 34.515625C22.624475 34.079097 21.848174 33.643502 21.072266 33.207031 A 1.0001 1.0001 0 0 0 20.810547 33.058594C17.220083 31.038874 13.629455 29.019821 10.039062 27C13.492004 25.057747 16.943744 23.11394 20.396484 21.171875 A 1.0001 1.0001 0 0 0 20.443359 21.146484C20.456805 21.138922 20.470929 21.132563 20.484375 21.125 A 1.0001 1.0001 0 0 0 20.490234 21.121094C20.638214 21.037929 20.785633 20.954231 20.933594 20.871094C21.785945 20.39217 22.638525 19.914208 23.490234 19.435547 A 1.0001 1.0001 0 0 0 23.529297 19.412109C29.017126 16.324905 34.504346 13.239533 39.992188 10.152344 z M 26.400391 36.349609L25.599609 36.75L25.441406 37.632812L26.052734 38.287109L26.400391 38.349609L27.201172 37.947266L27.359375 37.066406L26.746094 36.412109L26.400391 36.349609 z M 52.800781 36.568359L51.998047 36.96875L51.841797 37.851562L52.453125 38.505859L52.800781 38.568359L53.601562 38.166016L53.759766 37.285156L53.146484 36.630859L52.800781 36.568359 z M 29.800781 38.261719L28.998047 38.664062L28.841797 39.544922L29.453125 40.199219L29.800781 40.261719L30.601562 39.861328L30.759766 38.978516L30.146484 38.324219L29.800781 38.261719 z M 49.599609 38.425781L48.798828 38.828125L48.640625 39.708984L49.253906 40.363281L49.599609 40.425781L50.400391 40.025391L50.558594 39.142578L49.947266 38.488281L49.599609 38.425781 z M 33.199219 40.173828L32.398438 40.576172L32.240234 41.457031L32.853516 42.113281L33.199219 42.173828L34.001953 41.773438L34.158203 40.890625L33.546875 40.236328L33.199219 40.173828 z M 46.400391 40.283203L45.599609 40.685547L45.441406 41.568359L46.052734 42.222656L46.400391 42.283203L47.201172 41.882812L47.359375 41L46.746094 40.345703L46.400391 40.283203 z M 36.599609 42.087891L35.798828 42.488281L35.640625 43.371094L36.253906 44.025391L36.599609 44.087891L37.400391 43.685547L37.558594 42.802734L36.947266 42.148438L36.599609 42.087891 z M 43.199219 42.142578L42.398438 42.542969L42.240234 43.425781L42.853516 44.080078L43.199219 44.142578L44.001953 43.740234L44.158203 42.859375L43.546875 42.205078L43.199219 42.142578 z M 40 44 A 1.0001 1.0001 0 1 0 40 46 A 1.0001 1.0001 0 1 0 40 44 z M 26.400391 50.349609L25.599609 50.75L25.441406 51.632812L26.052734 52.287109L26.400391 52.349609L27.201172 51.947266L27.359375 51.066406L26.746094 50.412109L26.400391 50.349609 z M 52.800781 50.568359L51.998047 50.96875L51.841797 51.851562L52.453125 52.505859L52.800781 52.568359L53.601562 52.166016L53.759766 51.285156L53.146484 50.630859L52.800781 50.568359 z M 29.800781 52.261719L28.998047 52.664062L28.841797 53.544922L29.453125 54.199219L29.800781 54.261719L30.601562 53.861328L30.759766 52.978516L30.146484 52.324219L29.800781 52.261719 z M 49.599609 52.425781L48.798828 52.828125L48.640625 53.708984L49.253906 54.363281L49.599609 54.425781L50.400391 54.025391L50.558594 53.142578L49.947266 52.488281L49.599609 52.425781 z M 33.199219 54.173828L32.398438 54.576172L32.240234 55.457031L32.853516 56.113281L33.199219 56.173828L34.001953 55.773438L34.158203 54.890625L33.546875 54.236328L33.199219 54.173828 z M 46.400391 54.283203L45.599609 54.685547L45.441406 55.568359L46.052734 56.222656L46.400391 56.283203L47.201172 55.882812L47.359375 55L46.746094 54.345703L46.400391 54.283203 z M 36.599609 56.087891L35.798828 56.488281L35.640625 57.371094L36.253906 58.025391L36.599609 58.087891L37.400391 57.685547L37.558594 56.802734L36.947266 56.148438L36.599609 56.087891 z M 43.199219 56.142578L42.398438 56.542969L42.240234 57.425781L42.853516 58.080078L43.199219 58.142578L44.001953 57.740234L44.158203 56.859375L43.546875 56.205078L43.199219 56.142578 z M 40 58 A 1.0001 1.0001 0 1 0 40 60 A 1.0001 1.0001 0 1 0 40 58 z" fill="#FFFFFF" />
</svg>