<?xml version="1.0" encoding="utf-8"?>
<svg xmlns="http://www.w3.org/2000/svg" viewBox="0 0 24 24" width="96" height="96">
  <path d="M12.208984 1.3769531C11.251471 1.39406 10.309463 1.4916016 9.4394531 1.6132812C7.1194278 1.9377604 5.2890625 2.5019531 5.2890625 2.5019531L5.8769531 4.4140625C5.8769531 4.4140625 7.5680722 3.8942709 9.7167969 3.59375C11.865522 3.2932291 14.442471 3.2813423 15.980469 4.0253906C16.731147 4.3883888 17.027998 4.7296141 17.144531 4.9648438C17.261064 5.2000734 17.262154 5.3983149 17.171875 5.6992188C16.991325 6.3010262 16.3621 7.011428 15.970703 7.4980469 A 1.0001 1.0001 0 0 0 15.96875 7.4980469C14.856953 8.8812841 14.942908 10.87146 16.244141 11.939453C17.545373 13.007446 19.657791 13.156691 22.277344 12.140625L21.554688 10.275391C19.340239 11.134325 18.014439 10.803585 17.513672 10.392578C17.012904 9.9815709 16.933089 9.4937159 17.529297 8.7519531L17.527344 8.7519531C17.73204 8.497572 18.699987 7.55988 19.085938 6.2734375C19.278911 5.6302162 19.305327 4.8245516 18.935547 4.078125C18.565767 3.3316984 17.864884 2.7146112 16.851562 2.2246094C15.725061 1.6796336 14.451326 1.4458424 13.169922 1.3886719C12.849571 1.3743792 12.528156 1.3712508 12.208984 1.3769531 z M 2.6308594 4.3105469L2.2890625 5.9023438C2.0946242 6.8110729 2.1007901 8.1094888 2.4355469 9.4980469C2.7703036 10.886605 3.4676742 12.388427 4.9101562 13.212891C5.4021825 13.493991 5.9494558 13.673065 6.5078125 13.757812L17.439453 23.392578L20.332031 20.498047L19.712891 19.792969L10.576172 9.4023438L10.535156 9.4433594C10.344878 8.6359765 9.95387 7.8778019 9.2988281 7.328125C8.2104243 6.4144877 7.004324 6.2004718 6.0605469 6.046875C5.1167697 5.8932782 4.4500534 5.7818625 3.8964844 5.3339844L2.6308594 4.3105469 z M 4.3144531 7.7304688C4.8155351 7.8728058 5.306975 7.9509727 5.7402344 8.0214844C6.6567072 8.1706375 7.3520757 8.3040123 8.0136719 8.859375C8.2829096 9.0853051 8.5673504 9.61105 8.6445312 10.134766C8.7217122 10.658481 8.5998732 11.105603 8.4082031 11.314453C7.8591617 11.912707 6.7817624 11.978985 5.9023438 11.476562C5.1578258 11.051027 4.6408526 10.107739 4.3808594 9.0292969C4.2562009 8.5122185 4.3305517 8.2042168 4.3144531 7.7304688 z M 10.482422 12.324219L11.945312 13.990234L10.9375 14.998047L9.2753906 13.533203L10.482422 12.324219 z" fill="#3CB8F3" />
</svg>