<?xml version="1.0" encoding="utf-8"?>
<svg xmlns="http://www.w3.org/2000/svg" viewBox="0 0 80 80" width="480" height="480">
  <path d="M40 9C37.800781 9 36 10.800781 36 13C36 14.472656 36.816406 15.75 38.011719 16.445313L26.746094 35.96875L11.738281 28.296875C11.449219 28.152344 11.152344 28.054688 10.855469 28C10.941406 27.679688 11 27.347656 11 27C11 24.800781 9.199219 23 7 23C4.800781 23 3 24.800781 3 27C3 29.191406 4.792969 30.988281 6.984375 31C6.960938 31.292969 6.976563 31.601563 7.046875 31.910156L11 50.109375L11 56.949219C9.851563 57.761719 9 58.988281 9 60.5C9 62.972656 11.027344 65 13.5 65L66.5 65C68.972656 65 71 62.972656 71 60.5C71 58.988281 70.148438 57.761719 69 56.949219L69 50.109375L72.953125 31.910156C73.023438 31.601563 73.039063 31.292969 73.015625 31C75.207031 30.988281 77 29.191406 77 27C77 24.800781 75.199219 23 73 23C70.800781 23 69 24.800781 69 27C69 27.347656 69.058594 27.679688 69.144531 28C68.847656 28.054688 68.550781 28.152344 68.261719 28.296875L53.253906 35.96875L41.988281 16.445313C43.183594 15.75 44 14.46875 44 13C44 10.800781 42.199219 9 40 9 Z M 40 11C41.117188 11 42 11.882813 42 13C42 14.117188 41.117188 15 40 15C38.882813 15 38 14.117188 38 13C38 11.882813 38.882813 11 40 11 Z M 40 17.09375C40.035156 17.09375 40.074219 17.125 40.109375 17.1875L52.46875 38.613281L69.171875 30.078125C70.191406 29.558594 71.242188 30.367188 71 31.484375L71 31.488281L67 49.890625L67 57.980469L67.566406 58.25C68.414063 58.65625 69 59.5 69 60.5C69 61.890625 67.890625 63 66.5 63L13.5 63C12.109375 63 11 61.890625 11 60.5C11 59.5 11.585938 58.65625 12.433594 58.25L13 57.980469L13 49.890625L9 31.488281C8.757813 30.367188 9.808594 29.558594 10.828125 30.078125L27.53125 38.613281L39.890625 17.1875C39.925781 17.125 39.964844 17.097656 40 17.09375 Z M 7 25C8.117188 25 9 25.882813 9 27C9 28.117188 8.117188 29 7 29C5.882813 29 5 28.117188 5 27C5 25.882813 5.882813 25 7 25 Z M 73 25C74.117188 25 75 25.882813 75 27C75 28.117188 74.117188 29 73 29C71.882813 29 71 28.117188 71 27C71 25.882813 71.882813 25 73 25 Z M 16 56C15.449219 56 15 56.449219 15 57C15 57.550781 15.449219 58 16 58C16.550781 58 17 57.550781 17 57C17 56.449219 16.550781 56 16 56 Z M 20 56C19.449219 56 19 56.449219 19 57C19 57.550781 19.449219 58 20 58C20.550781 58 21 57.550781 21 57C21 56.449219 20.550781 56 20 56 Z M 24 56C23.449219 56 23 56.449219 23 57C23 57.550781 23.449219 58 24 58C24.550781 58 25 57.550781 25 57C25 56.449219 24.550781 56 24 56 Z M 28 56C27.449219 56 27 56.449219 27 57C27 57.550781 27.449219 58 28 58C28.550781 58 29 57.550781 29 57C29 56.449219 28.550781 56 28 56 Z M 32 56C31.449219 56 31 56.449219 31 57C31 57.550781 31.449219 58 32 58C32.550781 58 33 57.550781 33 57C33 56.449219 32.550781 56 32 56 Z M 36 56C35.449219 56 35 56.449219 35 57C35 57.550781 35.449219 58 36 58C36.550781 58 37 57.550781 37 57C37 56.449219 36.550781 56 36 56 Z M 40 56C39.449219 56 39 56.449219 39 57C39 57.550781 39.449219 58 40 58C40.550781 58 41 57.550781 41 57C41 56.449219 40.550781 56 40 56 Z M 44 56C43.449219 56 43 56.449219 43 57C43 57.550781 43.449219 58 44 58C44.550781 58 45 57.550781 45 57C45 56.449219 44.550781 56 44 56 Z M 48 56C47.449219 56 47 56.449219 47 57C47 57.550781 47.449219 58 48 58C48.550781 58 49 57.550781 49 57C49 56.449219 48.550781 56 48 56 Z M 52 56C51.449219 56 51 56.449219 51 57C51 57.550781 51.449219 58 52 58C52.550781 58 53 57.550781 53 57C53 56.449219 52.550781 56 52 56 Z M 56 56C55.449219 56 55 56.449219 55 57C55 57.550781 55.449219 58 56 58C56.550781 58 57 57.550781 57 57C57 56.449219 56.550781 56 56 56 Z M 60 56C59.449219 56 59 56.449219 59 57C59 57.550781 59.449219 58 60 58C60.550781 58 61 57.550781 61 57C61 56.449219 60.550781 56 60 56 Z M 64 56C63.449219 56 63 56.449219 63 57C63 57.550781 63.449219 58 64 58C64.550781 58 65 57.550781 65 57C65 56.449219 64.550781 56 64 56Z" fill="#9D74DE" />
</svg>