<?xml version="1.0" encoding="utf-8"?>
<svg xmlns="http://www.w3.org/2000/svg" viewBox="0 0 80 80" width="480" height="480">
  <path d="M23.449219 4.0019531 A 1.0001 1.0001 0 0 0 22.550781 4.6835938L18.583984 16.583984L6.6835938 20.550781 A 1.0001 1.0001 0 0 0 6.6835938 22.449219L18.583984 26.416016L22.550781 38.316406 A 1.0001 1.0001 0 0 0 24.449219 38.316406L26.115234 33.316406L26.025391 33.287109L26.126953 32.716797L25.513672 32.0625L25.167969 32L24.365234 32.402344L24.310547 32.714844L24.21875 32.683594L23.5 34.837891L20.324219 25.308594 A 1.0001 1.0001 0 0 0 19.691406 24.675781L10.164062 21.5L19.691406 18.324219 A 1.0001 1.0001 0 0 0 20.324219 17.691406L23.5 8.1640625L26.675781 17.691406 A 1.0001 1.0001 0 0 0 27.308594 18.324219L36.835938 21.5L35.183594 22.050781L35.210938 22.132812L34.628906 22.425781L34.470703 23.306641L35.082031 23.960938L35.429688 24.023438L35.783203 23.847656L35.816406 23.949219L40.316406 22.449219 A 1.0001 1.0001 0 0 0 40.316406 20.550781L28.416016 16.583984L24.449219 4.6835938 A 1.0001 1.0001 0 0 0 23.449219 4.0019531 z M 33.498047 6.8769531L32.697266 7.2773438L32.539062 8.1601562L33.152344 8.8144531L33.498047 8.8769531L34.300781 8.4746094L34.457031 7.59375L33.845703 6.9394531L33.498047 6.8769531 z M 31 10L30.199219 10.402344L30.041016 11.283203L30.652344 11.9375L31 12L31.800781 11.597656L31.958984 10.716797L31.347656 10.0625L31 10 z M 45.835938 12.027344L45.035156 12.427734L44.876953 13.310547L45.490234 13.964844L45.835938 14.027344L46.638672 13.625L46.794922 12.744141L46.183594 12.089844L45.835938 12.027344 z M 41.890625 12.685547L41.089844 13.085938L40.931641 13.96875L41.544922 14.623047L41.890625 14.685547L42.691406 14.283203L42.849609 13.400391L42.238281 12.746094L41.890625 12.685547 z M 37.945312 13.341797L37.144531 13.744141L36.986328 14.625L37.597656 15.28125L37.945312 15.341797L38.746094 14.941406L38.904297 14.058594L38.292969 13.404297L37.945312 13.341797 z M 34 14L33.199219 14.402344L33.041016 15.283203L33.652344 15.9375L34 16L34.800781 15.597656L34.958984 14.716797L34.347656 14.0625L34 14 z M 65 22L64.199219 22.402344L64.041016 23.283203L64.652344 23.9375L65 24L65.800781 23.597656L65.958984 22.716797L65.347656 22.0625L65 22 z M 50.958984 22.001953 A 1.0001 1.0001 0 0 0 50.048828 22.693359L47.798828 29.693359 A 1.0001 1.0001 0 1 0 49.701172 30.306641L51 26.265625L55.642578 40.712891 A 1.0001 1.0001 0 0 0 56.287109 41.357422L70.734375 46L56.287109 50.642578 A 1.0001 1.0001 0 0 0 55.642578 51.287109L51 65.734375L46.357422 51.287109 A 1.0001 1.0001 0 0 0 45.712891 50.642578L31.267578 46L36.306641 44.380859 A 1.0003077 1.0003077 0 0 0 36.675781 44.164062L36.771484 44.181641L37.572266 43.779297L37.730469 42.898438L37.117188 42.244141L36.771484 42.181641L36.226562 42.455078 A 1.0003077 1.0003077 0 0 0 35.693359 42.476562L27.693359 45.048828 A 1.0001 1.0001 0 0 0 27.693359 46.951172L44.611328 52.388672L50.048828 69.306641 A 1.0001 1.0001 0 0 0 51.951172 69.306641L57.388672 52.388672L74.306641 46.951172 A 1.0001 1.0001 0 0 0 74.306641 45.048828L57.388672 39.611328L51.951172 22.693359 A 1.0001 1.0001 0 0 0 50.958984 22.001953 z M 31.634766 23.289062L30.833984 23.689453L30.675781 24.572266L31.287109 25.226562L31.634766 25.289062L32.435547 24.886719L32.59375 24.005859L31.980469 23.351562L31.634766 23.289062 z M 27.839844 24.552734L27.039062 24.955078L26.880859 25.837891L27.492188 26.492188L27.839844 26.552734L28.640625 26.152344L28.798828 25.269531L28.185547 24.615234L27.839844 24.552734 z M 63.513672 25.714844L62.712891 26.115234L62.554688 26.998047L63.167969 27.652344L63.513672 27.714844L64.316406 27.3125L64.472656 26.429688L63.861328 25.775391L63.513672 25.714844 z M 26.431641 28.205078L25.630859 28.607422L25.472656 29.488281L26.083984 30.142578L26.431641 30.205078L27.232422 29.804688L27.390625 28.921875L26.779297 28.267578L26.431641 28.205078 z M 62.029297 29.427734L61.228516 29.830078L61.070312 30.710938L61.681641 31.365234L62.029297 31.427734L62.830078 31.027344L62.988281 30.144531L62.375 29.490234L62.029297 29.427734 z M 74.029297 31.273438L73.228516 31.673828L73.070312 32.556641L73.683594 33.210938L74.029297 33.273438L74.830078 32.871094L74.988281 31.990234L74.376953 31.335938L74.029297 31.273438 z M 47.525391 32.808594L46.724609 33.208984L46.566406 34.091797L47.179688 34.746094L47.525391 34.808594L48.328125 34.40625L48.484375 33.525391L47.873047 32.871094L47.525391 32.808594 z M 70.353516 32.849609L69.552734 33.25L69.394531 34.132812L70.005859 34.787109L70.353516 34.849609L71.154297 34.447266L71.3125 33.564453L70.699219 32.910156L70.353516 32.849609 z M 66.675781 34.423828L65.875 34.826172L65.716797 35.707031L66.330078 36.361328L66.675781 36.423828L67.478516 36.023438L67.634766 35.140625L67.023438 34.486328L66.675781 34.423828 z M 8 35L7.1992188 35.402344L7.0410156 36.283203L7.6523438 36.9375L8 37L8.8007812 36.597656L8.9589844 35.716797L8.3476562 35.0625L8 35 z M 11.904297 35.867188L11.103516 36.269531L10.945312 37.150391L11.558594 37.804688L11.904297 37.867188L12.705078 37.466797L12.863281 36.583984L12.251953 35.929688L11.904297 35.867188 z M 63 36L62.199219 36.402344L62.041016 37.283203L62.652344 37.9375L63 38L63.800781 37.597656L63.958984 36.716797L63.347656 36.0625L63 36 z M 46.302734 36.617188L45.501953 37.017578L45.34375 37.900391L45.955078 38.554688L46.302734 38.617188L47.103516 38.214844L47.261719 37.332031L46.648438 36.677734L46.302734 36.617188 z M 15.808594 36.736328L15.007812 37.136719L14.849609 38.019531L15.462891 38.673828L15.808594 38.736328L16.611328 38.333984L16.767578 37.451172L16.15625 36.796875L15.808594 36.736328 z M 44.386719 39.732422L43.585938 40.134766L43.427734 41.017578L44.041016 41.671875L44.386719 41.732422L45.189453 41.332031L45.345703 40.449219L44.734375 39.794922L44.386719 39.732422 z M 40.580078 40.957031L39.777344 41.359375L39.621094 42.240234L40.232422 42.894531L40.580078 42.957031L41.380859 42.556641L41.539062 41.673828L40.925781 41.019531L40.580078 40.957031 z M 14.490234 43.191406L13.689453 43.591797L13.53125 44.474609L14.144531 45.128906L14.490234 45.191406L15.291016 44.789062L15.449219 43.908203L14.837891 43.253906L14.490234 43.191406 z M 10.746094 44.595703L9.9433594 44.996094L9.7871094 45.878906L10.398438 46.533203L10.746094 46.595703L11.546875 46.193359L11.705078 45.3125L11.091797 44.658203L10.746094 44.595703 z M 7 46L6.1992188 46.402344L6.0410156 47.283203L6.6523438 47.9375L7 48L7.8007812 47.597656L7.9589844 46.716797L7.3476562 46.0625L7 46 z M 19.947266 48.001953 A 1.0001 1.0001 0 0 0 19.050781 48.683594L16.208984 57.210938L7.6835938 60.050781 A 1.0001 1.0001 0 0 0 7.6835938 61.949219L16.208984 64.791016L19.050781 73.316406 A 1.0001 1.0001 0 0 0 20.947266 73.316406L23.789062 64.791016L32.316406 61.949219 A 1.0001 1.0001 0 0 0 32.316406 60.050781L27.316406 58.384766 A 1.0005641 1.0005641 0 0 0 27.001953 58.333984L27 58.333984 A 1.0005641 1.0005641 0 0 0 26.041016 59.615234L26.041016 59.617188L26.042969 59.619141 A 1.0005641 1.0005641 0 0 0 26.683594 60.283203L28.835938 61L22.683594 63.052734 A 1.0001 1.0001 0 0 0 22.050781 63.685547L20 69.839844L17.947266 63.685547 A 1.0001 1.0001 0 0 0 17.314453 63.052734L11.162109 61L17.314453 58.949219 A 1.0001 1.0001 0 0 0 17.947266 58.316406L19.998047 52.162109L20.716797 54.316406 A 1.0005641 1.0005641 0 0 0 20.861328 54.59375L20.84375 54.695312L21.457031 55.349609L21.802734 55.412109L22.603516 55.009766L22.761719 54.128906L22.666016 54.025391 A 1.0005641 1.0005641 0 0 0 22.615234 53.683594L20.947266 48.683594 A 1.0001 1.0001 0 0 0 19.947266 48.001953 z M 66 55L65.199219 55.402344L65.041016 56.283203L65.652344 56.9375L66 57L66.800781 56.597656L66.958984 55.716797L66.347656 55.0625L66 55 z M 69.794922 56.265625L68.994141 56.666016L68.835938 57.548828L69.447266 58.203125L69.794922 58.265625L70.595703 57.863281L70.753906 56.982422L70.142578 56.326172L69.794922 56.265625 z M 23.205078 57.070312L22.404297 57.470703L22.246094 58.353516L22.857422 59.007812L23.205078 59.070312L24.005859 58.667969L24.164062 57.787109L23.552734 57.130859L23.205078 57.070312 z M 73.589844 57.529297L72.789062 57.931641L72.630859 58.8125L73.242188 59.466797L73.589844 59.529297L74.390625 59.128906L74.548828 58.246094L73.935547 57.591797L73.589844 57.529297 z M 62 58L61.199219 58.402344L61.041016 59.283203L61.652344 59.9375L62 60L62.800781 59.597656L62.958984 58.716797L62.347656 58.0625L62 58 z M 62.970703 61.880859L62.169922 62.28125L62.011719 63.164062L62.623047 63.818359L62.970703 63.880859L63.771484 63.478516L63.929688 62.597656L63.316406 61.943359L62.970703 61.880859 z M 63.939453 65.761719L63.138672 66.162109L62.980469 67.044922L63.59375 67.699219L63.939453 67.761719L64.742188 67.359375L64.898438 66.478516L64.287109 65.824219L63.939453 65.761719 z M 28 67L27.199219 67.402344L27.041016 68.283203L27.652344 68.9375L28 69L28.800781 68.597656L28.958984 67.716797L28.347656 67.0625L28 67 z M 31.072266 69.560547L30.271484 69.962891L30.113281 70.84375L30.726562 71.498047L31.072266 71.560547L31.873047 71.160156L32.03125 70.277344L31.419922 69.623047L31.072266 69.560547 z" fill="#9D74DE" />
</svg>