<?xml version="1.0" encoding="utf-8"?>
<svg xmlns="http://www.w3.org/2000/svg" viewBox="0 0 80 80" width="480" height="480">
  <path d="M62.955078 8.5546875C62.699453 8.5659375 62.447719 8.6749062 62.261719 8.8789062C61.888719 9.2859063 61.916219 9.9180156 62.324219 10.291016C63.968219 11.796016 65.447797 13.485406 66.716797 15.316406C66.910797 15.595406 67.222063 15.746094 67.539062 15.746094C67.735062 15.746094 67.933422 15.689359 68.107422 15.568359C68.561422 15.254359 68.673375 14.629781 68.359375 14.175781C67.005375 12.222781 65.429781 10.418453 63.675781 8.8144531C63.471281 8.6284531 63.210703 8.5434375 62.955078 8.5546875 z M 56.25 8.765625C55.998875 8.814375 55.765828 8.9585 55.611328 9.1875C55.302328 9.6455 55.422859 10.266172 55.880859 10.576172C60.401859 13.630172 63.995391 17.854969 66.275391 22.792969C66.443391 23.158969 66.805594 23.373047 67.183594 23.373047C67.324594 23.373047 67.466562 23.34425 67.601562 23.28125C68.102563 23.05025 68.323797 22.454125 68.091797 21.953125C65.659797 16.683125 61.823 12.176969 57 8.9179688C56.771 8.7639688 56.501125 8.716875 56.25 8.765625 z M 40 8.9960938C25.664 8.9960938 14 20.659094 14 34.996094C14 42.332094 17.093 49.287844 22.5 54.214844L22.5 60.021484C18.854 60.259484 15.957031 63.293047 15.957031 66.998047L15.957031 69.998047C15.957031 70.551047 16.405031 70.998047 16.957031 70.998047L63 70.998047C63.552 70.998047 64 70.551047 64 69.998047L64 66.998047C64 63.307047 61.126 60.282438 57.5 60.023438L57.5 54.214844C62.905 49.288844 66 42.322094 66 34.996094C66 20.659094 54.336 8.9960938 40 8.9960938 z M 40 10.996094C53.233 10.996094 64 21.763094 64 34.996094C64 41.888094 61.037141 48.437094 55.869141 52.996094L24.136719 52.996094C18.964719 48.435094 16 41.898094 16 34.996094C16 21.763094 26.767 10.996094 40 10.996094 z M 37.179688 13.556641C36.629688 13.626641 36.250312 14.127734 36.320312 14.677734C36.380312 15.177734 36.810547 15.546875 37.310547 15.546875L37.439453 15.546875C37.979453 15.466875 38.370781 14.967969 38.300781 14.417969C38.230781 13.877969 37.729687 13.486641 37.179688 13.556641 z M 31.537109 15.162109C31.407109 15.164406 31.275391 15.191344 31.150391 15.246094C30.640391 15.475094 30.420625 16.066406 30.640625 16.566406C30.810625 16.937406 31.170781 17.15625 31.550781 17.15625C31.690781 17.15625 31.830938 17.135172 31.960938 17.076172C32.470937 16.855172 32.690703 16.257813 32.470703 15.757812C32.305703 15.375312 31.927109 15.155219 31.537109 15.162109 z M 26.578125 18.357422C26.323125 18.337422 26.059609 18.412891 25.849609 18.587891C25.429609 18.947891 25.380234 19.578047 25.740234 19.998047C25.940234 20.227047 26.22 20.347656 26.5 20.347656C26.73 20.347656 26.960391 20.278422 27.150391 20.107422C27.570391 19.757422 27.619766 19.117266 27.259766 18.697266C27.079766 18.492266 26.833125 18.377422 26.578125 18.357422 z M 22.728516 22.861328C22.344141 22.792891 21.943438 22.951875 21.710938 23.296875C21.410937 23.756875 21.539766 24.377734 22.009766 24.677734C22.169766 24.787734 22.360781 24.837891 22.550781 24.837891C22.880781 24.837891 23.200625 24.686719 23.390625 24.386719C23.690625 23.926719 23.559609 23.307813 23.099609 23.007812C22.982109 22.932813 22.856641 22.884141 22.728516 22.861328 z M 37.132812 25.859375C36.767812 25.859375 36.430859 26.058859 36.255859 26.380859L34.451172 29.681641L31.150391 31.486328C30.829391 31.661328 30.630859 31.998281 30.630859 32.363281C30.630859 32.728281 30.831344 33.064234 31.152344 33.240234L34.451172 35.044922L36.255859 38.34375C36.430859 38.66475 36.767812 38.865234 37.132812 38.865234C37.497813 38.865234 37.834766 38.66575 38.009766 38.34375L39.814453 35.044922L43.113281 33.240234C43.434281 33.064234 43.634766 32.728281 43.634766 32.363281C43.634766 31.998281 43.434281 31.661328 43.113281 31.486328L39.814453 29.681641L38.009766 26.380859C37.834766 26.059859 37.497813 25.859375 37.132812 25.859375 z M 19.933594 28.275391C19.545469 28.321516 19.202344 28.590031 19.089844 28.988281C18.929844 29.517281 19.229766 30.066563 19.759766 30.226562C19.849766 30.256563 19.949062 30.267578 20.039062 30.267578C20.479063 30.267578 20.87 29.987641 21 29.556641C21.16 29.016641 20.860078 28.466641 20.330078 28.306641C20.197578 28.269391 20.062969 28.260016 19.933594 28.275391 z M 10.09375 28.390625C9.71125 28.465344 9.3940937 28.760266 9.3085938 29.166016C8.4865938 33.089016 8.4184219 37.098031 9.1074219 41.082031C10.024422 46.377031 12.277 51.377016 15.625 55.541016C15.822 55.787016 16.111297 55.914062 16.404297 55.914062C16.622297 55.915062 16.844297 55.844313 17.029297 55.695312C17.460297 55.349313 17.527641 54.718062 17.181641 54.289062C14.046641 50.388062 11.936125 45.703234 11.078125 40.740234C10.432125 37.007234 10.495625 33.251172 11.265625 29.576172C11.378625 29.035172 11.032187 28.506578 10.492188 28.392578C10.356687 28.364328 10.22125 28.365719 10.09375 28.390625 z M 37.132812 28.945312L38.199219 30.898438C38.291219 31.066437 38.428703 31.203922 38.595703 31.294922L40.548828 32.363281L38.595703 33.429688C38.427703 33.521687 38.289266 33.658172 38.197266 33.826172L37.130859 35.779297L36.0625 33.826172C35.9705 33.658172 35.832063 33.520688 35.664062 33.429688L33.712891 32.363281L35.667969 31.294922C35.834969 31.202922 35.973453 31.066437 36.064453 30.898438L37.132812 28.945312 z M 50.498047 32.533203C50.147047 32.533203 49.794641 32.694125 49.619141 33.015625L47.107422 37.607422L42.515625 40.119141C42.195625 40.294141 41.996094 40.631094 41.996094 40.996094C41.996094 41.361094 42.196578 41.698047 42.517578 41.873047L47.109375 44.386719L49.621094 48.978516C49.796094 49.299516 50.133047 49.5 50.498047 49.5C50.863047 49.5 51.2 49.300516 51.375 48.978516L53.886719 44.386719L58.478516 41.873047C58.799516 41.698047 58.998047 41.361094 58.998047 40.996094C58.998047 40.631094 58.799516 40.294141 58.478516 40.119141L53.886719 37.607422L51.375 33.015625C51.1995 32.694125 50.849047 32.533203 50.498047 32.533203 z M 19.189453 34.1875 A 1 1 0 0 0 19.189453 36.1875 A 1 1 0 0 0 19.189453 34.1875 z M 50.498047 35.580078L52.273438 38.824219C52.365437 38.992219 52.502922 39.131656 52.669922 39.222656L55.914062 40.996094L52.669922 42.771484C52.502922 42.863484 52.364438 43.001922 52.273438 43.169922L50.498047 46.414062L48.722656 43.169922C48.630656 43.001922 48.493172 42.862484 48.326172 42.771484L45.080078 40.996094L48.326172 39.222656C48.493172 39.130656 48.631656 38.992219 48.722656 38.824219L50.498047 35.580078 z M 24.5 54.996094L55.5 54.996094L55.5 59.996094L24.5 59.996094L24.5 54.996094 z M 22.957031 61.996094L23.5 61.996094L56.5 61.996094L57 61.996094C59.757 61.996094 62 64.239094 62 66.996094L62 68.996094L17.957031 68.996094L17.957031 66.996094C17.957031 64.239094 20.200031 61.996094 22.957031 61.996094 z" fill="#9D74DE" />
</svg>