<?xml version="1.0" encoding="utf-8"?>
<svg xmlns="http://www.w3.org/2000/svg" viewBox="0 0 80 80" width="480" height="480">
  <path d="M40.197266 9C33.729528 9 28.375345 13.803755 27.478516 20.027344C23.312815 22.0494 20.353516 25.83791 20.353516 30.9375C20.353516 35.771609 24.024022 39.753456 27.017578 42.273438C27.034464 42.287148 27.04257 42.307529 27.060547 42.320312C27.066659 42.324387 27.073923 42.324211 27.080078 42.328125C27.089232 42.335794 27.098281 42.345875 27.107422 42.353516C26.43572 43.513358 25.400459 45.634933 25.769531 48.681641C26.359985 53.55917 29.894915 55.827853 31 56.472656L31 74 A 1.0001 1.0001 0 1 0 33 74L33 56 A 1.0001 1.0001 0 0 0 32.472656 55.119141C32.143564 54.942814 28.278837 52.761543 27.755859 48.441406C27.403028 45.528763 28.735498 43.312051 29.167969 42.654297 A 1.0001 1.0001 0 0 0 28.957031 41.324219C28.74806 41.157379 28.528799 40.962075 28.3125 40.777344C28.276633 40.742822 28.252735 40.699644 28.210938 40.669922L28.201172 40.669922C28.191428 40.663225 28.179818 40.662556 28.169922 40.65625C25.446865 38.295559 22.353516 34.624768 22.353516 30.9375C22.353516 27.000814 24.292525 24.178942 27.357422 22.369141C27.44001 24.484004 28.028196 26.468285 29.015625 28.203125 A 1.0001 1.0001 0 0 0 29.054688 28.291016C31.285166 32.695165 35.894627 36.613265 39.365234 40.576172 A 1.0007107 1.0007107 0 1 0 40.871094 39.257812C39.30747 37.472392 37.594055 35.727486 35.978516 34.005859C37.302232 34.467336 38.718313 34.730469 40.197266 34.730469C47.121129 34.730469 52.770264 29.226901 53.037109 22.367188C56.103315 24.176932 58.042969 26.999849 58.042969 30.9375C58.042969 34.617537 54.961358 38.281329 52.242188 40.642578C51.301646 39.415512 50.271219 38.285691 48.421875 37.080078 A 1.0001 1.0001 0 0 0 47.855469 36.910156 A 1.0001 1.0001 0 0 0 47.328125 38.753906C49.287284 40.03111 50.11113 41.073825 51.142578 42.496094 A 1.0001 1.0001 0 0 0 51.144531 42.498047 A 1.0001 1.0001 0 0 0 51.261719 42.703125C52.289398 44.078332 52.930913 46.265247 52.507812 48.542969C52.147583 50.482231 51.038853 52.517612 48.693359 54.296875C48.495798 52.808429 48.162228 51.448952 47.644531 50.117188 A 1.0001 1.0001 0 0 0 46.720703 49.464844 A 1.0001 1.0001 0 0 0 45.779297 50.841797C46.471276 52.6219 46.810988 54.366566 46.876953 56.650391L46.876953 74.208984 A 1.0001 1.0001 0 1 0 48.876953 74.208984L48.876953 57.669922 A 1.0001 1.0001 0 0 0 48.904297 57.429688C48.904297 57.170724 48.8835 56.942199 48.876953 56.693359L48.876953 56.5625C52.212904 54.389708 53.972151 51.613137 54.474609 48.908203C54.874843 46.753584 54.455238 44.759121 53.646484 43.095703 A 1.0001 1.0001 0 0 0 53.451172 42.271484C53.441692 42.258527 53.433271 42.247299 53.423828 42.234375C56.409042 39.712684 60.042969 35.747619 60.042969 30.9375C60.042969 25.837271 57.082542 22.04921 52.916016 20.027344C52.019186 13.803755 46.665003 9 40.197266 9 z M 40.197266 11C46.209852 11 51.0625 15.852648 51.0625 21.865234C51.0625 27.87782 46.209852 32.730469 40.197266 32.730469C34.18468 32.730469 29.332031 27.87782 29.332031 21.865234C29.332031 15.852648 34.18468 11 40.197266 11 z M 13.994141 12.117188C13.739141 12.118437 13.484063 12.215156 13.289062 12.410156C12.899063 12.810156 12.910781 13.440078 13.300781 13.830078C13.490781 14.020078 13.75 14.109375 14 14.109375C14.26 14.119375 14.520938 14.020312 14.710938 13.820312C15.099937 13.420312 15.098219 12.790391 14.699219 12.400391C14.504219 12.210391 14.249141 12.115938 13.994141 12.117188 z M 64.654297 12.339844C64.399422 12.339844 64.144219 12.440625 63.949219 12.640625C63.558219 13.030625 63.558219 13.660781 63.949219 14.050781C64.148219 14.250781 64.399156 14.339844 64.660156 14.339844C64.910156 14.339844 65.170375 14.250781 65.359375 14.050781C65.750375 13.660781 65.750375 13.030625 65.359375 12.640625C65.164875 12.440625 64.909172 12.339844 64.654297 12.339844 z M 41.652344 13.158203C41.270078 13.232734 40.950891 13.524688 40.869141 13.929688C40.749141 14.469687 41.100625 14.999141 41.640625 15.119141C41.710625 15.129141 41.779609 15.140625 41.849609 15.140625C42.309609 15.140625 42.730312 14.819609 42.820312 14.349609C42.940313 13.809609 42.590781 13.280156 42.050781 13.160156C41.915781 13.132656 41.779766 13.133359 41.652344 13.158203 z M 37.921875 13.527344C37.791422 13.527969 37.65875 13.554375 37.53125 13.609375C37.03125 13.829375 36.789766 14.419922 37.009766 14.919922C37.169766 15.299922 37.539687 15.529297 37.929688 15.529297C38.058687 15.529297 38.200078 15.499219 38.330078 15.449219C38.830078 15.229219 39.059609 14.640859 38.849609 14.130859C38.685359 13.755859 38.313234 13.525469 37.921875 13.527344 z M 16.839844 14.921875C16.583469 14.924375 16.328672 15.025703 16.138672 15.220703C15.749672 15.610703 15.749437 16.250625 16.148438 16.640625L16.148438 16.630859C16.339437 16.830859 16.600609 16.919922 16.849609 16.919922C17.109609 16.919922 17.358594 16.819141 17.558594 16.619141C17.948594 16.229141 17.938828 15.600938 17.548828 15.210938C17.354328 15.015937 17.096219 14.919375 16.839844 14.921875 z M 45.310547 15.085938C45.055547 15.077188 44.794844 15.164609 44.589844 15.349609C44.188844 15.719609 44.159062 16.359766 44.539062 16.759766C44.728062 16.979766 45.000531 17.080078 45.269531 17.080078C45.510531 17.080078 45.759219 17.000312 45.949219 16.820312C46.349219 16.440312 46.38 15.810391 46 15.400391C45.815 15.200391 45.565547 15.094687 45.310547 15.085938 z M 61.828125 15.175781C61.572 15.175781 61.314141 15.270937 61.119141 15.460938C60.728141 15.860938 60.728141 16.490859 61.119141 16.880859C61.318141 17.070859 61.569078 17.169922 61.830078 17.169922C62.080078 17.169922 62.339297 17.070859 62.529297 16.880859C62.919297 16.490859 62.919297 15.860938 62.529297 15.460938C62.338797 15.270937 62.08425 15.175781 61.828125 15.175781 z M 35.107422 16.117188C34.721172 16.060469 34.317109 16.227578 34.099609 16.580078C33.809609 17.050078 33.959688 17.670938 34.429688 17.960938C34.599688 18.060938 34.780172 18.109375 34.951172 18.109375C35.290172 18.109375 35.621547 17.940859 35.810547 17.630859C36.100547 17.160859 35.951469 16.54 35.480469 16.25C35.362969 16.18 35.236172 16.136094 35.107422 16.117188 z M 19.691406 17.732422C19.435281 17.734922 19.180234 17.834297 18.990234 18.029297C18.600234 18.419297 18.6 19.049453 19 19.439453C19.189 19.639453 19.438219 19.730469 19.699219 19.730469C19.959219 19.730469 20.210156 19.629687 20.410156 19.429688C20.799156 19.039688 20.789438 18.409531 20.398438 18.019531C20.203938 17.824531 19.947531 17.729922 19.691406 17.732422 z M 59 17.998047C58.742625 17.998047 58.484063 18.094062 58.289062 18.289062C57.898063 18.679063 57.898063 19.320937 58.289062 19.710938C58.489062 19.900937 58.74 20 59 20C59.26 20 59.510937 19.900937 59.710938 19.710938C60.100937 19.320937 60.100938 18.679063 59.710938 18.289062C59.515438 18.094062 59.257375 17.998047 59 17.998047 z M 46.951172 19C46.400172 19.04 45.979531 19.510547 46.019531 20.060547C46.049531 20.590547 46.490719 21 47.011719 21L47.080078 21C47.630078 20.96 48.051719 20.489687 48.011719 19.929688C47.980719 19.379687 47.501172 18.96 46.951172 19 z M 33.951172 19.929688C33.400172 19.969688 32.979531 20.440234 33.019531 20.990234C33.049531 21.520234 33.490719 21.929688 34.011719 21.929688L34.080078 21.929688C34.630078 21.889688 35.051719 21.419375 35.011719 20.859375C34.980719 20.309375 34.501172 19.889688 33.951172 19.929688 z M 45.638672 23.261719C45.386172 23.304219 45.149734 23.444922 44.990234 23.669922C44.669234 24.119922 44.779516 24.750312 45.228516 25.070312C45.409516 25.190313 45.609547 25.25 45.810547 25.25C46.120547 25.25 46.430859 25.100078 46.630859 24.830078C46.940859 24.380078 46.840859 23.749453 46.380859 23.439453C46.160359 23.274453 45.891172 23.219219 45.638672 23.261719 z M 35.554688 23.597656C35.299687 23.572656 35.033859 23.645312 34.818359 23.820312C34.389359 24.160312 34.318922 24.790703 34.669922 25.220703C34.869922 25.470703 35.159219 25.589844 35.449219 25.589844C35.669219 25.589844 35.890078 25.519141 36.080078 25.369141C36.509078 25.019141 36.568516 24.390937 36.228516 23.960938C36.054016 23.745938 35.809688 23.622656 35.554688 23.597656 z M 42.732422 25.630859C42.603047 25.624141 42.469844 25.641953 42.339844 25.689453C41.819844 25.869453 41.539516 26.440938 41.728516 26.960938C41.869516 27.370938 42.259922 27.630859 42.669922 27.630859C42.779922 27.630859 42.89 27.610312 43 27.570312C43.519 27.390313 43.799375 26.809062 43.609375 26.289062C43.474375 25.899062 43.120547 25.651016 42.732422 25.630859 z M 38.613281 25.769531C38.225156 25.815938 37.882031 26.085234 37.769531 26.490234C37.619531 27.020234 37.930703 27.570703 38.470703 27.720703C38.560703 27.750703 38.649234 27.759766 38.740234 27.759766C39.170234 27.759766 39.568219 27.469297 39.699219 27.029297C39.849219 26.499297 39.539766 25.940781 39.009766 25.800781C38.877266 25.763281 38.742656 25.754062 38.613281 25.769531 z M 6 29.939453C5.45 29.929453 5 30.379687 5 30.929688C5 31.489688 5.439 31.939453 6 31.939453C6.55 31.939453 7 31.499453 7 30.939453C7 30.389453 6.5597656 29.939453 6.0097656 29.939453L6 29.939453 z M 72.990234 29.939453C72.439234 29.939453 72 30.389453 72 30.939453C72 31.489453 72.45 31.939453 73 31.939453L73.009766 31.939453C73.559766 31.929453 74 31.479688 74 30.929688C74 30.379688 73.550234 29.929453 72.990234 29.939453 z M 10.003906 29.960938C9.4466997 29.964072 9 30.401187 9 30.949219C8.99 31.509219 9.4392344 31.960938 9.9902344 31.960938L10 31.960938C10.55 31.960937 11 31.520937 11 30.960938C11 30.412254 10.561992 29.963084 10.003906 29.960938 z M 14 29.980469C14.001475 29.980495 14.002433 29.982389 14.003906 29.982422C14.006037 29.982409 14.007632 29.980469 14.009766 29.980469L14 29.980469 z M 14.003906 29.982422C13.44688 29.985757 13 30.422602 13 30.980469C13 31.530469 13.439234 31.980469 13.990234 31.980469C14.550234 31.980469 15 31.540234 15 30.990234C15 30.441683 14.561799 29.994704 14.003906 29.982422 z M 64.990234 29.990234C64.439234 29.990234 64 30.44 64 31C64 31.55 64.449766 31.990234 65.009766 31.990234C65.559766 31.980234 66 31.530469 66 30.980469C66 30.430469 65.550234 29.980234 64.990234 29.990234 z M 20.021484 42.001953C19.766484 41.996953 19.508594 42.089297 19.308594 42.279297C18.909594 42.659297 18.898297 43.289453 19.279297 43.689453C19.469297 43.899453 19.74 44 20 44C20.25 44 20.500453 43.910703 20.689453 43.720703C21.089453 43.340703 21.09875 42.710547 20.71875 42.310547C20.52875 42.110547 20.276484 42.006953 20.021484 42.001953 z M 30.732422 42.876953C30.479922 42.909453 30.238859 43.039766 30.068359 43.259766C29.728359 43.689766 29.809234 44.320156 30.240234 44.660156C30.420234 44.800156 30.640375 44.869141 30.859375 44.869141C31.149375 44.869141 31.449437 44.740234 31.648438 44.490234C31.989438 44.050234 31.90875 43.420078 31.46875 43.080078C31.24925 42.910078 30.984922 42.844453 30.732422 42.876953 z M 60.341797 43.347656C60.085422 43.347656 59.830625 43.445625 59.640625 43.640625C59.241625 44.030625 59.241625 44.660781 59.640625 45.050781C59.830625 45.250781 60.089844 45.339844 60.339844 45.339844C60.599844 45.339844 60.850781 45.250781 61.050781 45.050781C61.440781 44.660781 61.440781 44.020625 61.050781 43.640625C60.856281 43.445625 60.598172 43.347656 60.341797 43.347656 z M 17.132812 44.773438C16.877688 44.768437 16.619422 44.860781 16.419922 45.050781C16.019922 45.430781 16.010625 46.060938 16.390625 46.460938C16.590625 46.670938 16.850375 46.769531 17.109375 46.769531C17.359375 46.769531 17.608594 46.680234 17.808594 46.490234C18.199594 46.110234 18.220078 45.480078 17.830078 45.080078C17.640078 44.880078 17.387937 44.778438 17.132812 44.773438 z M 33.878906 45.417969C33.623906 45.434219 33.374453 45.549766 33.189453 45.759766C32.830453 46.179766 32.869062 46.809922 33.289062 47.169922C33.478062 47.339922 33.710453 47.419922 33.939453 47.419922C34.220453 47.419922 34.499219 47.300078 34.699219 47.080078C35.058219 46.660078 35.019609 46.029922 34.599609 45.669922C34.394609 45.484922 34.133906 45.401719 33.878906 45.417969 z M 63.171875 46.167969C62.9155 46.167969 62.660703 46.265937 62.470703 46.460938C62.070703 46.850938 62.070703 47.490859 62.470703 47.880859C62.660703 48.070859 62.909922 48.169922 63.169922 48.169922C63.429922 48.169922 63.680859 48.070859 63.880859 47.880859C64.270859 47.490859 64.270859 46.850938 63.880859 46.460938C63.686359 46.265938 63.42825 46.167969 63.171875 46.167969 z M 14.248047 47.542969C13.990547 47.537969 13.73075 47.630313 13.53125 47.820312C13.14025 48.200312 13.119766 48.830469 13.509766 49.230469C13.699766 49.440469 13.969469 49.539062 14.230469 49.539062C14.480469 49.539062 14.731875 49.449766 14.921875 49.259766C15.320875 48.879766 15.331172 48.249609 14.951172 47.849609C14.760672 47.649609 14.505547 47.547969 14.248047 47.542969 z M 36.869141 48.162109C36.613141 48.159609 36.355156 48.254219 36.160156 48.449219C35.759156 48.829219 35.758437 49.469375 36.148438 49.859375C36.339437 50.059375 36.600375 50.160156 36.859375 50.160156C37.109375 50.160156 37.369594 50.059141 37.558594 49.869141C37.949594 49.489141 37.959359 48.850938 37.568359 48.460938C37.378359 48.265938 37.125141 48.164609 36.869141 48.162109 z M 66 48.998047C65.742625 48.998047 65.484062 49.094062 65.289062 49.289062C64.898062 49.679062 64.898062 50.320937 65.289062 50.710938C65.489063 50.900938 65.74 51 66 51C66.26 51 66.510937 50.900937 66.710938 50.710938C67.100938 50.320938 67.100938 49.679063 66.710938 49.289062C66.515438 49.094063 66.257375 48.998047 66 48.998047 z M 39.630859 51.167969C39.377109 51.135469 39.110625 51.199141 38.890625 51.369141C38.460625 51.709141 38.380938 52.339531 38.710938 52.769531C38.910937 53.029531 39.209766 53.160156 39.509766 53.160156C39.719766 53.160156 39.929141 53.089219 40.119141 52.949219C40.549141 52.619219 40.629063 51.990781 40.289062 51.550781C40.124063 51.330781 39.884609 51.200469 39.630859 51.167969 z" fill="#9D74DE" />
</svg>