<svg xmlns="http://www.w3.org/2000/svg" viewBox="0 0 100 100"><path d="M16 15C12.698375 15 10 17.698375 10 21L10 65C10 68.301625 12.698375 71 16 71L39 71L39 74C39 76.220375 37.220375 78 35 78L33.677734 78C31.871321 78 30.178138 79.297374 30.013672 81.189453C29.836756 83.236429 31.47547 85 33.5 85L66.5 85C68.52453 85 70.16465 83.236704 69.986328 81.189453C69.821862 79.297374 68.12804 78 66.322266 78L65 78C62.779625 78 61 76.220375 61 74L61 71L68 71 A 1.0001 1.0001 0 1 0 68 69L60 69L40 69L16 69C13.779625 69 12 67.220375 12 65L12 57L68.5 57 A 0.50005 0.50005 0 1 0 68.5 56L12 56L12 21C12 18.779625 13.779625 17 16 17L84 17C86.220375 17 88 18.779625 88 21L88 34 A 1.0001 1.0001 0 1 0 90 34L90 21C90 17.698375 87.301625 15 84 15L16 15 z M 48.5 19 A 0.50005 0.50005 0 1 0 48.5 20L51.5 20 A 0.50005 0.50005 0 1 0 51.5 19L48.5 19 z M 14.5 22 A 0.50005 0.50005 0 0 0 14 22.5L14 38.5 A 0.50005 0.50005 0 1 0 15 38.5L15 23L85 23L85 29.5 A 0.50005 0.50005 0 1 0 86 29.5L86 22.5 A 0.50005 0.50005 0 0 0 85.5 22L14.5 22 z M 83.513672 33 A 0.50005 0.50005 0 0 0 83.083984 33.222656C79.981695 37.876091 78.670637 41.6197 78.220703 43.132812C75.93464 41.204878 74.048975 40.222011 73.8125 40.101562 A 0.50005 0.50005 0 0 0 73.486328 39.992188 A 0.50005 0.50005 0 0 0 73.035156 40.310547C72.964696 40.420981 72.50366 41.156988 72.025391 42.591797C71.509579 44.139231 71 46.444444 71 49.5C71 54.543882 72.934723 58.040334 74.439453 60L72 60 A 1.0001 1.0001 0 0 0 71.007812 61.128906L73.667969 81.517578C73.92697 83.501929 75.633185 85 77.634766 85L90.365234 85C92.366815 85 94.07303 83.501929 94.332031 81.517578L96.992188 61.128906 A 1.0001 1.0001 0 0 0 96 60L93.228516 60C94.750042 57.56362 96.986182 52.614665 96.998047 44.5625 A 0.50005 0.50005 0 0 0 96.474609 43.994141 A 0.50005 0.50005 0 0 0 96.283203 44.044922C93.95533 44.719862 91.638649 45.827492 89.496094 47.289062C89.477464 46.549858 89.386393 45.315034 88.986328 43.634766C88.34708 40.949926 86.943391 37.256552 83.900391 33.199219 A 0.50005 0.50005 0 0 0 83.513672 33 z M 83.503906 34.472656C86.101596 38.130749 87.4399 41.455391 88.013672 43.865234C88.624423 46.430391 88.501953 47.960937 88.501953 47.960938L88.541016 47.964844C87.134479 49.022709 85.827574 50.245592 84.660156 51.601562C83.271167 48.325409 81.106881 45.742818 79.056641 43.867188C79.214554 43.258993 80.248419 39.56449 83.503906 34.472656 z M 83.492188 36.992188 A 0.50005 0.50005 0 0 0 83 37.5L83 45.5 A 0.50005 0.50005 0 1 0 84 45.5L84 37.5 A 0.50005 0.50005 0 0 0 83.492188 36.992188 z M 74.150391 41.488281C75.80881 42.427795 81.41858 45.977206 83.945312 52.470703C82.220784 54.67852 80.883189 57.213472 80.126953 60L75.726562 60C74.304956 58.356103 72 54.884968 72 49.5C72 46.555556 72.490421 44.360769 72.974609 42.908203C73.087489 42.569565 73.161774 42.420606 73.248047 42.210938C73.731898 45.103439 75.048193 51.223657 78.083984 55.777344 A 0.50005 0.50005 0 1 0 78.916016 55.222656C75.704752 50.405762 74.493652 43.766476 74.150391 41.488281 z M 14.492188 42.992188 A 0.50005 0.50005 0 0 0 14 43.5L14 46.5 A 0.50005 0.50005 0 1 0 15 46.5L15 43.5 A 0.50005 0.50005 0 0 0 14.492188 42.992188 z M 95.242188 45.529297C94.283326 47.038972 92.076013 50.482094 89.369141 54.207031 A 0.50005 0.50005 0 1 0 90.177734 54.792969C92.756362 51.244511 94.816065 48.055258 95.900391 46.355469C95.55387 53.748562 93.31882 58.117714 92.033203 60L81.166016 60C83.165316 53.05174 89.079409 47.769858 95.242188 45.529297 z M 14.492188 49.992188 A 0.50005 0.50005 0 0 0 14 50.5L14 53.5 A 0.50005 0.50005 0 0 0 14.5 54L67.5 54 A 0.50005 0.50005 0 1 0 67.5 53L15 53L15 50.5 A 0.50005 0.50005 0 0 0 14.492188 49.992188 z M 88.255859 55.994141 A 0.50005 0.50005 0 0 0 87.886719 56.195312C87.624826 56.536567 87.364569 56.867762 87.109375 57.1875 A 0.50024408 0.50024408 0 0 0 87.890625 57.8125C88.149431 57.488238 88.413581 57.151433 88.679688 56.804688 A 0.50005 0.50005 0 0 0 88.306641 55.994141 A 0.50005 0.50005 0 0 0 88.255859 55.994141 z M 50 59C49.041667 59 48.260256 59.377378 47.751953 59.949219C47.24365 60.52106 47 61.263889 47 62C47 62.736111 47.24365 63.47894 47.751953 64.050781C48.260256 64.622622 49.041667 65 50 65C50.958333 65 51.739744 64.622622 52.248047 64.050781C52.75635 63.47894 53 62.736111 53 62C53 61.263889 52.75635 60.52106 52.248047 59.949219C51.739744 59.377378 50.958333 59 50 59 z M 50 60C50.708333 60 51.176923 60.247622 51.501953 60.613281C51.826983 60.97894 52 61.486111 52 62C52 62.513889 51.826983 63.02106 51.501953 63.386719C51.176923 63.752378 50.708333 64 50 64C49.291667 64 48.823077 63.752378 48.498047 63.386719C48.173017 63.02106 48 62.513889 48 62C48 61.486111 48.173017 60.97894 48.498047 60.613281C48.823077 60.247622 49.291667 60 50 60 z M 73.138672 62L94.861328 62L94.470703 65L73.529297 65L73.138672 62 z M 73.660156 66L94.339844 66L94.078125 68L73.921875 68L73.660156 66 z M 74.050781 69L93.949219 69L92.349609 81.257812C92.218611 82.261462 91.377654 83 90.365234 83L77.634766 83C76.622346 83 75.781389 82.261462 75.650391 81.257812L74.050781 69 z M 41 71L59 71L59 74C59 77.301625 61.698375 80 65 80L66.322266 80C67.170491 80 67.928607 80.609361 67.994141 81.363281C68.073818 82.27803 67.38547 83 66.5 83L33.5 83C32.61453 83 31.926776 82.276352 32.005859 81.361328C32.072406 80.608212 32.828802 80 33.677734 80L48.498047 80 A 0.50005 0.50005 0 1 0 48.498047 79L38.304688 79C39.925714 77.923205 41 76.082275 41 74L41 71 z M 51.5 79 A 0.50005 0.50005 0 1 0 51.5 80L53.5 80 A 0.50005 0.50005 0 1 0 53.5 79L51.5 79 z"/></svg>