<svg width="813" height="159" viewBox="0 0 813 159" fill="none" xmlns="http://www.w3.org/2000/svg">
<path d="M191.76 125.675C195.189 129.125 195.275 132.863 192.389 136.715C181.3 152.04 165.467 158.078 149.834 158.078C116.997 158.078 94.5332 132.029 94.5332 101.178C94.5332 70.5571 115.453 47.3254 146.948 47.3254C175.327 47.3254 194.904 68.0557 194.904 96.6927C194.904 102.213 191.588 105.548 184.644 105.548H114.081C115.025 125.445 130.543 138.987 149.806 138.987C159.951 138.987 169.782 135.767 178.585 124.41C182.1 120.672 187.187 121.189 190.502 124.525L191.76 125.675ZM115.025 87.9521H173.212C170.84 73.7773 160.466 64.2029 145.261 64.2029C130.143 64.2029 118.425 73.3748 115.025 87.9521Z" fill="#003C6E"/>
<path d="M317.032 13.2523V147.036C317.032 152.557 314.145 155.576 308.544 155.576H305.657C300.056 155.576 297.484 152.557 297.484 147.036V144.65C288.567 153.391 276.878 158.192 263.817 158.192C234.409 158.192 211.117 133.609 211.117 102.557C211.117 71.8205 234.409 47.3524 263.817 47.3524C277.078 47.3524 288.681 52.154 297.484 60.6934V13.2523C297.484 7.53059 300.084 4.59784 305.657 4.59784H308.544C314.145 4.59784 317.032 7.53059 317.032 13.2523ZM297.455 122.942V82.5164C291.253 72.4244 279.65 66.2713 266.075 66.2713C246.384 66.2713 230.865 82.3151 230.865 102.528C230.865 123.172 246.384 139.101 266.075 139.101C279.765 139.101 291.253 132.862 297.455 122.942Z" fill="#003C6E"/>
<path d="M67.8459 145.458V147.011C67.8459 152.531 64.6451 155.55 59.2436 155.55H9.17267C3.57114 155.55 0.570312 152.531 0.570312 147.011V145.458C0.570312 139.937 3.57114 137.12 9.17267 137.12H20.7759V58.4538C20.7759 52.9334 23.891 49.9144 29.464 49.9144H32.0647C37.6662 49.9144 40.4384 52.9334 40.4384 58.4538V137.12H59.2436C64.6451 137.12 67.8459 139.937 67.8459 145.458Z" fill="#003C6E"/>
<path d="M48.4111 66.387C48.4111 55.5187 56.6991 47.2093 67.6735 47.2093C78.3336 47.2093 86.6216 55.49 86.6216 66.387C86.6216 77.2554 78.3336 85.651 67.6735 85.651C56.6991 85.651 48.4111 77.2554 48.4111 66.387Z" fill="#003C6E"/>
<path d="M794.047 145.458V147.011C794.047 152.531 790.847 155.55 785.445 155.55H735.346C729.744 155.55 726.743 152.531 726.743 147.011V145.458C726.743 139.937 729.744 137.12 735.346 137.12H746.949V58.4538C746.949 52.9334 750.064 49.9144 755.637 49.9144H758.238C763.839 49.9144 766.611 52.9334 766.611 58.4538V137.12H785.416C790.847 137.12 794.047 139.937 794.047 145.458Z" fill="#003C6E"/>
<path d="M774.604 66.387C774.604 55.5187 782.892 47.2093 793.867 47.2093C804.527 47.2093 812.815 55.49 812.815 66.387C812.815 77.2554 804.527 85.651 793.867 85.651C782.892 85.651 774.604 77.2554 774.604 66.387Z" fill="#003C6E"/>
<path d="M397.452 137.148H381.734V58.4824C381.734 52.4444 379.133 49.943 373.131 49.943H349.096C343.809 49.943 340.608 52.8469 340.608 58.2811V59.9488C340.608 65.3541 343.809 68.3731 349.096 68.3731H362.043V137.119H346.438C341.065 137.119 337.836 139.937 337.836 145.457V147.01C337.836 152.53 341.037 155.549 346.438 155.549H397.424C403.025 155.549 406.112 152.53 406.112 147.01V145.457C406.14 139.966 403.054 137.148 397.452 137.148Z" fill="#003C6E"/>
<path d="M369.99 38.4417C380.65 38.4417 388.938 30.0461 388.938 19.1777C388.938 8.30935 380.65 0 369.99 0C359.016 0 350.728 8.2806 350.728 19.1777C350.728 30.0461 359.016 38.4417 369.99 38.4417Z" fill="#9546FF"/>
<path d="M610.302 58.4162V59.6813C610.302 65.0867 607.387 68.3357 601.899 68.3357H571.548V117.416C571.548 130.44 578.807 139.497 590.696 139.497C593.383 139.497 596.812 139.095 600.213 137.945C604.471 137.427 607.558 138.261 608.301 142.631L609.13 147.433C609.844 151.487 607.987 155.052 603.443 155.972C598.67 157.439 593.611 158.043 588.953 158.043C565.232 158.043 551.971 141.683 551.971 118.882V68.3357H540.254C534.766 68.3357 531.766 65.2017 531.766 59.5951V58.4449C531.766 52.8095 534.766 49.9055 540.254 49.9055H551.971V28.7439C551.971 23.1085 554.972 20.0895 560.574 20.0895H563.06C568.662 20.0895 571.548 23.1085 571.548 28.7439V49.9055H601.899C607.387 49.8767 610.302 52.8095 610.302 58.4162Z" fill="#003C6E"/>
<path d="M713.08 125.646C716.51 129.096 716.596 132.834 713.709 136.687C702.62 152.012 686.787 158.05 671.155 158.05C638.317 158.05 615.854 132 615.854 101.178C615.854 70.5572 636.774 47.3254 668.268 47.3254C696.647 47.3254 716.224 68.0557 716.224 96.7215C716.224 102.242 712.909 105.577 705.964 105.577H635.43C636.373 125.474 651.892 139.016 671.155 139.016C681.3 139.016 691.131 135.796 699.934 124.439C703.449 120.701 708.536 121.218 711.851 124.554L713.08 125.646ZM636.345 87.9234H694.532C692.16 73.7486 681.786 64.1742 666.582 64.1742C651.463 64.1742 639.746 73.3461 636.345 87.9234Z" fill="#003C6E"/>
<path d="M522.512 95.5152V146.982C522.512 152.933 519.911 155.521 513.909 155.521H511.537C505.535 155.521 502.935 152.933 502.935 146.982V95.8315C502.935 77.8039 492.36 66.2456 475.899 66.2456C463.067 66.2456 451.263 74.0661 443.604 84.9057L443.49 84.7907V146.982C443.49 152.933 441.003 155.521 435.002 155.521H432.401C426.485 155.521 423.913 152.933 423.913 146.982V58.425C423.913 52.387 426.514 49.8856 432.401 49.8856H435.002C441.003 49.8856 443.49 52.387 443.49 58.425V64.7792C452.407 53.7383 465.039 47.2691 479.328 47.2691C505.621 47.2979 522.512 65.9293 522.512 95.5152Z" fill="#003C6E"/>
</svg>
